# xmcd
#
# Track frame offsets:
#	150
#	10205
#	18890
#	29072
#	38290
#	48620
#	57770
#	68037
#	81830
#	95155
#	106552
#	118157
#
# Disc length: 1722 seconds
#
# Revision: 1
# Processed by: cddbd v1.4PL0 Copyright (c) Steve Scherf et al.
# Submitted via: audiograbber 1.81.02
#
DISCID=9106b80c
DTITLE=Buck Owens - I've Got A Tiger By The Tail
DYEAR=1900
DGENRE=Country
TTITLE0=I've Got a Tiger by The Tail
TTITLE1=Trouble And Me
TTITLE2=Let The Sad Times Roll On
TTITLE3=Wham Bam
TTITLE4=If You Fall Out of Love With Me
TTITLE5=Fallin' For You 
TTITLE6=We're Gonna Let The Good Times Roll
TTITLE7=The Band Keeps Playin' On
TTITLE8=Streets Of Laredo
TTITLE9=Cryin' Time
TTITLE10=A Maiden's Prayer
TTITLE11=Memphis
EXTD=
EXTT0=
EXTT1=
EXTT2=
EXTT3=
EXTT4=
EXTT5=
EXTT6=
EXTT7=
EXTT8=
EXTT9=
EXTT10=
EXTT11=
PLAYORDER=
